Coordinates
version=1
nRows=9
nColumns=38
inDegrees=yes

Units are S.I. units (second, meters, Newtons, ...)
Angles are in degrees.

endheader
time	pelvis_tilt	pelvis_list	pelvis_rotation	pelvis_tx	pelvis_ty	pelvis_tz	hip_flexion_r	hip_adduction_r	hip_rotation_r	knee_angle_r	ankle_angle_r	subtalar_angle_r	mtp_angle_r	hip_flexion_l	hip_adduction_l	hip_rotation_l	knee_angle_l	ankle_angle_l	subtalar_angle_l	mtp_angle_l	lumbar_extension	lumbar_bending	lumbar_rotation	arm_flex_r	arm_add_r	arm_rot_r	elbow_flex_r	pro_sup_r	wrist_flex_r	wrist_dev_r	arm_flex_l	arm_add_l	arm_rot_l	elbow_flex_l	pro_sup_l	wrist_flex_l	wrist_dev_l
      0.28500000	     -0.52741163	     -0.95005684	     -1.80526301	      0.65392327	      0.90479573	     -0.01376918	     13.56780767	      2.53196243	      2.70941493	    -54.72277420	     -0.19916541	      0.00000000	      0.00000000	     10.57168887	      3.11069112	      8.38735140	    -16.13923990	     11.86445205	      0.00000000	      0.00000000	     -7.76023948	      1.21600415	      2.07490634	      0.27058427	    -13.43403849	     -9.36143409	     47.47926061	    107.75644648	      0.00000000	      0.00000000	     -4.40530385	    -15.09189297	    -36.71491362	     31.98741147	    107.98175371	      0.00000000	      0.00000000
      0.29000000	     -0.59179012	     -1.05359773	     -1.83495831	      0.65878086	      0.90532108	     -0.01405760	     14.20163621	      2.67463489	      2.70491006	    -54.11146350	      0.25642725	      0.00000000	      0.00000000	     10.06822626	      3.00171324	      8.43352707	    -15.71467563	     12.03243271	      0.00000000	      0.00000000	     -7.72808474	      1.35200652	      1.97656606	      0.02426176	    -13.53428322	     -9.42491910	     47.27253165	    107.79784412	      0.00000000	      0.00000000	     -3.88282565	    -15.13598271	    -36.34242346	     32.26235227	    108.02983894	      0.00000000	      0.00000000
      0.29500000	     -0.64039166	     -1.03554119	     -1.82263078	      0.66325510	      0.90578743	     -0.01439245	     14.83548655	      2.67666389	      2.70348856	    -53.45365679	      0.36951465	      0.00000000	      0.00000000	      9.69054455	      3.00765084	      8.30274709	    -15.50494754	     12.07674990	      0.00000000	      0.00000000	     -7.77833661	      1.36860359	      1.66449337	     -0.06249207	    -13.59206470	     -9.42799286	     47.20485411	    107.80415089	      0.00000000	      0.00000000	     -3.38542736	    -15.18510947	    -36.24290981	     32.45237902	    108.03557509	      0.00000000	      0.00000000
      0.30000000	     -0.61368426	     -1.22954251	     -1.68497662	      0.66841202	      0.90642646	     -0.01470382	     15.23929165	      2.87617574	      2.49249463	    -52.58758659	      1.17464993	      0.00000000	      0.00000000	      9.00453745	      2.81561536	      8.62882395	    -14.98874884	     12.09497805	      0.00000000	      0.00000000	     -7.79241299	      1.58509905	      1.61778093	     -0.45767460	    -13.62519189	     -9.78138881	     46.84098647	    107.90087812	      0.00000000	      0.00000000	     -2.82353068	    -15.37574677	    -34.88074706	     32.72010124	    108.27643574	      0.00000000	      0.00000000
      0.30500000	     -0.68104114	     -1.21115554	     -1.67655140	      0.67295383	      0.90674187	     -0.01507959	     15.86667812	      2.86653952	      2.49762369	    -51.82852490	      1.30548365	      0.00000000	      0.00000000	      8.63254068	      2.83945697	      8.47274506	    -14.76656016	     12.15669826	      0.00000000	      0.00000000	     -7.81155777	      1.60355993	      1.31297753	     -0.55565386	    -13.71905823	     -9.78851558	     46.76826066	    107.90800243	      0.00000000	      0.00000000	     -2.31079454	    -15.41752255	    -34.79850169	     32.93414560	    108.27739435	      0.00000000	      0.00000000
      0.31000000	     -0.74335945	     -1.37885539	     -1.58010150	      0.67809816	      0.90715711	     -0.01536141	     16.33338731	      3.05431579	      2.36569973	    -50.84990216	      2.09664840	      0.00000000	      0.00000000	      8.06523307	      2.66407841	      8.75286366	    -14.24395080	     12.18912860	      0.00000000	      0.00000000	     -7.71877110	      1.80576895	      1.28483469	     -0.97579237	    -13.77030411	    -10.12814676	     46.38719319	    108.02097080	      0.00000000	      0.00000000	     -1.75583726	    -15.55124341	    -33.69799790	     33.18451393	    108.42635501	      0.00000000	      0.00000000
      0.31500000	     -0.81496544	     -1.35435752	     -1.58019189	      0.68263449	      0.90736152	     -0.01567218	     16.95244393	      3.02855505	      2.35100438	    -50.00204470	      2.24328280	      0.00000000	      0.00000000	      7.69796371	      2.69224891	      8.60479529	    -14.02636350	     12.25657040	      0.00000000	      0.00000000	     -7.72924150	      1.81072393	      1.00666011	     -1.08260301	    -13.84468396	    -10.12923984	     46.30189331	    108.02976484	      0.00000000	      0.00000000	     -1.23166340	    -15.61784126	    -33.60848015	     33.40664763	    108.42541183	      0.00000000	      0.00000000
      0.32000000	     -0.86927075	     -1.49671916	     -1.47756231	      0.68772226	      0.90765855	     -0.01591301	     17.37600988	      3.18562206	      2.22398408	    -48.91446038	      2.90300482	      0.00000000	      0.00000000	      7.13671384	      2.54133433	      8.81403962	    -13.54893696	     12.41074553	      0.00000000	      0.00000000	     -7.66308711	      1.97326311	      0.96169802	     -1.46236778	    -13.87263373	    -10.56411704	     45.90190366	    108.19109670	      0.00000000	      0.00000000	     -0.71935435	    -15.75477026	    -32.29421071	     33.78679631	    108.46335961	      0.00000000	      0.00000000
      0.32500000	     -0.96387070	     -1.54115761	     -1.46683151	      0.69257259	      0.90776420	     -0.01616036	     17.90850644	      3.22673715	      2.17385201	    -47.86358677	      3.16300273	      0.00000000	      0.00000000	      6.71948711	      2.49495455	      8.79932112	    -13.23723354	     12.46452212	      0.00000000	      0.00000000	     -7.58824260	      2.04683284	      0.79605933	     -1.71377737	    -13.98381484	    -10.58947117	     45.68326738	    108.22297796	      0.00000000	      0.00000000	     -0.17697911	    -15.74450839	    -32.15427584	     34.06676037	    108.44670090	      0.00000000	      0.00000000
